<svg width="27" height="31" fill="none" xmlns="http://www.w3.org/2000/svg"><path d="M13.603 17h-.2c-1.826-.033-3.304-.706-4.395-1.993-2.4-2.835-2-7.696-1.957-8.16.156-3.482 1.727-5.148 3.024-5.926C11.04.34 12.168.026 13.428 0h.106c.692 0 2.051.118 3.354.895 1.31.778 2.905 2.444 3.061 5.952.044.464.443 5.325-1.958 8.16-1.084 1.287-2.562 1.96-4.388 1.993zm4.682-9.99c0-.02-.007-.039-.007-.052-.205-4.684-3.378-5.187-4.737-5.187h-.075c-1.683.039-4.545.757-4.738 5.187 0 .02 0 .04-.006.052-.007.046-.443 4.489 1.54 6.828.785.928 1.832 1.385 3.21 1.398h.062c1.372-.013 2.425-.47 3.204-1.398 1.977-2.326 1.553-6.788 1.547-6.828z" fill="#C4C4C4"/><path d="M.002 24.784v-.019c0-.05.006-.1.006-.156.04-1.24.125-4.138 2.978-5.064l.066-.019c2.964-.72 5.43-2.347 5.456-2.366a.915.915 0 0 1 1.235.207.819.819 0 0 1-.217 1.176c-.111.076-2.727 1.81-6 2.61-1.532.52-1.703 2.079-1.75 3.506 0 .056 0 .106-.006.157-.007.563.033 1.433.138 1.934 1.065.576 5.239 2.566 11.589 2.566 6.323 0 10.523-1.997 11.595-2.572.105-.501.151-1.371.138-1.935 0-.05-.007-.1-.007-.156-.046-1.427-.216-2.986-1.748-3.506-3.274-.8-5.89-2.541-6.001-2.61a.819.819 0 0 1-.217-1.177.915.915 0 0 1 1.235-.206c.027.018 2.479 1.646 5.456 2.366a.598.598 0 0 1 .066.019c2.853.932 2.938 3.83 2.978 5.064 0 .056 0 .106.006.156v.019c.007.325.013 1.997-.335 2.835a.814.814 0 0 1-.342.395c-.197.125-4.923 2.992-12.83 2.992C5.582 31 .855 28.127.658 28.008a.848.848 0 0 1-.342-.395c-.328-.832-.322-2.503-.315-2.829z" fill="#C4C4C4"/></svg>