<svg width="25" height="18" fill="none" xmlns="http://www.w3.org/2000/svg"><path d="M21.948 0H3.058C1.37 0 0 1.297 0 2.892v12.216C0 16.703 1.37 18 3.057 18h18.886C23.629 18 25 16.703 25 15.108V2.898C25.005 1.301 23.634 0 21.948 0zm1.66 15.108c0 .866-.744 1.57-1.66 1.57H3.058c-.916 0-1.661-.704-1.661-1.57V2.898c0-.867.745-1.572 1.66-1.572h18.886c.915 0 1.66.705 1.66 1.571v12.21h.005z" fill="#CBCBCB"/><path d="M15.767 8.848l6.114-5.187a.64.64 0 0 0 .052-.935.73.73 0 0 0-.988-.049l-8.432 7.16-1.645-1.39c-.005-.005-.01-.01-.01-.015a1.019 1.019 0 0 0-.114-.093L4.05 2.672a.725.725 0 0 0-.988.054.635.635 0 0 0 .057.935l6.187 5.231-6.161 5.457a.638.638 0 0 0-.031.935.735.735 0 0 0 .988.034l6.254-5.535 1.697 1.434a.721.721 0 0 0 .93-.005l1.744-1.478 6.218 5.589c.134.122.31.181.48.181a.717.717 0 0 0 .508-.205.638.638 0 0 0-.026-.935l-6.14-5.516z" fill="#CBCBCB"/></svg>