<svg width="97" height="37" fill="none" xmlns="http://www.w3.org/2000/svg"><path d="M2.01 14V5H.504V3.495h1.504v-.133c0-.783.282-1.456.844-2.018C3.416.78 4.088.5 4.871.5H8v1.505H6.369c-.375 0-.696.136-.964.408-.267.267-.4.583-.4.949v.133h1.504V5H5.005v9H2.009zM12.5 3.495h3.01c.82 0 1.523.298 2.109.893.59.59.886 1.296.886 2.117v4.5c0 .81-.296 1.514-.886 2.11-.586.59-1.29.885-2.11.885H12.5c-.82 0-1.526-.293-2.116-.879a2.9 2.9 0 0 1-.88-2.116v-4.5c0-.83.296-1.538.887-2.124.59-.59 1.293-.886 2.109-.886zm0 3.01v4.5c0 .403.145.752.436 1.047.295.296.652.443 1.069.443.417 0 .77-.147 1.061-.443.296-.295.443-.644.443-1.047v-4.5c0-.413-.15-.767-.45-1.062A1.44 1.44 0 0 0 14.005 5c-.413 0-.767.148-1.062.443a1.45 1.45 0 0 0-.443 1.062zM24.488 14h-2.995V3.495h2.995v3.01c.117-1.003.427-1.756.928-2.257.502-.502 1.196-.753 2.082-.753h1.49v3.01h-2.995c-.412 0-.766.147-1.062.443-.295.29-.443.64-.443 1.047V14zm6.005-10.505h2.995v9h1.505c.417 0 .771-.147 1.062-.443.295-.295.443-.644.443-1.047v-7.51h2.995v9h1.505c.408 0 .757-.147 1.047-.443.296-.295.443-.644.443-1.047v-7.51h3.01v5.38c0 1.396-.504 2.6-1.512 3.613C42.983 13.496 41.778 14 40.372 14h-3.874v-.478c-.577.319-1.287.478-2.13.478h-3.875V3.495zm24.005 4.5v-1.49c0-.413-.15-.767-.45-1.062A1.44 1.44 0 0 0 52.993 5h-1.505c-.886 0-1.383.502-1.49 1.505h-1.505c.23-2.007 1.228-3.01 2.995-3.01h3.01c.82 0 1.523.298 2.109.893.59.59.886 1.296.886 2.117V14h-2.995v-1.505C54.38 13.498 53.878 14 52.993 14h-1.505c-.82 0-1.526-.293-2.116-.879a2.9 2.9 0 0 1-.879-2.116v-.014c0-.82.295-1.524.886-2.11.59-.59 1.294-.886 2.11-.886h3.009zm0 1.505h-1.505a1.45 1.45 0 0 0-1.062.443c-.295.29-.443.64-.443 1.048v.014c0 .403.146.752.436 1.047.295.296.652.443 1.069.443.417 0 .771-.147 1.062-.443.295-.295.443-.644.443-1.047V9.5zm8.979 4.5H60.48V3.495h2.996v3.01c.117-1.003.426-1.756.928-2.257.501-.502 1.195-.753 2.08-.753h1.492v3.01H64.98c-.412 0-.766.147-1.061.443-.296.29-.443.64-.443 1.047V14zm15.004 0h-2.995v-1.505C75.369 13.498 74.867 14 73.98 14h-1.504c-.82 0-1.526-.293-2.117-.879a2.898 2.898 0 0 1-.879-2.116v-4.5c0-.83.296-1.538.886-2.124.59-.59 1.294-.886 2.11-.886h3.009V.5h2.995V14zm-2.995-9H73.98c-.412 0-.766.148-1.061.443-.296.295-.443.65-.443 1.062v4.5c0 .403.145.752.435 1.047.296.296.652.443 1.07.443.416 0 .77-.147 1.061-.443.295-.295.443-.644.443-1.047V5zM9.505 32.5H3.5v1.505c0 .403.145.752.436 1.047.295.296.652.443 1.069.443h1.504c.994 0 1.491-.497 1.491-1.49h1.505C9.27 36.002 8.272 37 6.509 37H3.5c-.82 0-1.526-.293-2.116-.879a2.9 2.9 0 0 1-.88-2.116v-4.5c0-.83.296-1.538.887-2.124.59-.59 1.293-.886 2.109-.886h3.01c.82 0 1.523.298 2.109.893.59.59.886 1.296.886 2.117V32.5zM3.5 30.995h3.01v-1.49c0-.413-.15-.767-.45-1.062A1.44 1.44 0 0 0 5.004 28c-.413 0-.767.148-1.062.443a1.45 1.45 0 0 0-.443 1.062v1.49zM12.493 37V23.5h2.995V37h-2.995zm15.012-4.5H21.5v1.505c0 .403.145.752.436 1.047.295.296.651.443 1.069.443h1.504c.994 0 1.491-.497 1.491-1.49h1.505C27.27 36.002 26.272 37 24.509 37H21.5c-.82 0-1.526-.293-2.116-.879-.586-.59-.88-1.296-.88-2.116v-4.5c0-.83.296-1.538.887-2.124.59-.59 1.293-.886 2.109-.886h3.01c.82 0 1.523.298 2.109.893.59.59.886 1.296.886 2.117V32.5zM21.5 30.995h3.01v-1.49c0-.413-.15-.767-.45-1.062A1.44 1.44 0 0 0 23.004 28c-.413 0-.767.148-1.062.443a1.45 1.45 0 0 0-.443 1.062v1.49zm16.488-1.49h-1.49C36.38 28.502 35.878 28 34.993 28a1.45 1.45 0 0 0-1.062.443 1.45 1.45 0 0 0-.443 1.062v4.5c0 .403.146.752.436 1.047.295.296.652.443 1.069.443.886 0 1.387-.497 1.505-1.49h1.49C37.866 36.002 36.868 37 34.993 37h-1.505c-.82 0-1.526-.293-2.116-.879a2.9 2.9 0 0 1-.879-2.116v-4.5c0-.83.295-1.538.886-2.124.59-.59 1.294-.886 2.11-.886h1.504c1.884 0 2.883 1.003 2.995 3.01zM42.51 23.5h2.996v2.995h1.504V28h-1.504v6.005c0 .482.16.853.478 1.11.319.254.614.38.886.38h.14V37h-1.504c-.825 0-1.53-.293-2.117-.879a2.9 2.9 0 0 1-.879-2.116V28h-1.504v-1.505h1.504V23.5zM53 37h-2.995V26.495H53v3.01c.117-1.003.427-1.756.928-2.257.502-.502 1.195-.753 2.081-.753H57.5v3.01h-2.995c-.413 0-.767.147-1.062.443-.295.29-.443.64-.443 1.047V37zm9-10.505h3.01c.82 0 1.523.298 2.109.893.59.59.886 1.296.886 2.117v4.5c0 .81-.296 1.514-.886 2.11-.586.59-1.29.885-2.11.885H62c-.82 0-1.526-.293-2.116-.879-.586-.59-.88-1.296-.88-2.116v-4.5c0-.83.296-1.538.887-2.124.59-.59 1.293-.886 2.109-.886zm0 3.01v4.5c0 .403.145.752.436 1.047.295.296.651.443 1.069.443.417 0 .77-.147 1.061-.443.296-.295.443-.644.443-1.047v-4.5c0-.413-.15-.767-.45-1.062A1.44 1.44 0 0 0 63.505 28c-.413 0-.767.148-1.062.443A1.45 1.45 0 0 0 62 29.505zM70.993 37V26.495h2.995V28c.061-.506.216-.884.464-1.132.254-.248.6-.373 1.041-.373h1.505c.82 0 1.523.298 2.109.893.59.59.886 1.296.886 2.117V37h-2.995v-7.495c0-.413-.15-.767-.45-1.062A1.44 1.44 0 0 0 75.493 28c-.412 0-.766.148-1.062.443a1.45 1.45 0 0 0-.443 1.062V37h-2.995zm11.988-11.995V23.5h2.996v1.505H82.98zm0 11.995V26.495h2.996V37H82.98zm13.507-7.495h-1.49C94.88 28.502 94.378 28 93.493 28c-.412 0-.766.148-1.062.443a1.45 1.45 0 0 0-.443 1.062v4.5c0 .403.146.752.436 1.047.295.296.652.443 1.069.443.886 0 1.388-.497 1.505-1.49h1.49C96.366 36.002 95.368 37 93.493 37h-1.505c-.82 0-1.525-.293-2.116-.879a2.9 2.9 0 0 1-.879-2.116v-4.5c0-.83.295-1.538.886-2.124.59-.59 1.294-.886 2.11-.886h1.504c1.884 0 2.883 1.003 2.995 3.01z" fill="url(#paint0_linear)"/><defs><linearGradient id="paint0_linear" x1="6.529" y1="7.4" x2="78.607" y2="25.848" gradientUnits="userSpaceOnUse"><stop stop-color="#69D1D1"/><stop offset="1" stop-color="#3EA8A7"/></linearGradient></defs></svg>