<svg width="1433" height="900" viewBox="0 0 1433 900" fill="none" xmlns="http://www.w3.org/2000/svg">
  <path d="m 0,823.458 0.32013541,77.51761 1433.07246459,-0.99429 -0.015,-38.48227 c -10.6614,-0.47285 -39.9043,-20.06596 -98.2943,-54.89996 -73,-43.542 -110.7932,27.10391 -164.5832,66.80391 -53.78,39.7 -103.73,-8.964 -163.92,-39.7 -60.187,-30.736 -137.026,32.016 -199.777,39.7 C 744.052,881.087 665.5,775.5 596.778,809.371 543.144,835.805 490,860.5 439,860.5 348.5,860.5 295.828,786.319 240.76,854.193 185.693,922.068 103.732,904.139 67.8739,867 39.1876,837.289 10.672,825.592 0,823.458 Z" fill="#18161F" />
</svg>
