<svg width="1442" height="900" fill="none" xmlns="http://www.w3.org/2000/svg"><path d="M0 823.458l.32 77.518 1441.933-.798.38-35.922c-10.662-.473-49.16-22.823-107.55-57.657-73-43.542-110.793 27.104-164.583 66.804-53.78 39.7-103.73-8.964-163.92-39.7-60.187-30.736-137.026 32.016-199.777 39.7-62.751 7.684-141.303-97.903-210.025-64.032C543.144 835.805 490 860.5 439 860.5c-90.5 0-143.172-74.181-198.24-6.307C185.693 922.068 103.732 904.139 67.874 867 39.188 837.289 10.672 825.592 0 823.458z" fill="#18161F"/></svg>