<svg width="27" height="27" fill="none" xmlns="http://www.w3.org/2000/svg"><path d="M23.572 25.187l.021-.025c.319-.387.676-.735 1.027-1.078l.083-.08.002-.003c.259-.249.52-.506.769-.767h0c.518-.543.75-1.128.748-1.678 0-.55-.234-1.123-.752-1.644l-3.34-3.36-.007-.006h0c-.488-.51-1.041-.752-1.595-.752-.555 0-1.117.243-1.624.753l-1.99 2.001-.272.273-.333-.193a10.029 10.029 0 0 0-.525-.276 7.33 7.33 0 0 1-.656-.361s0 0 0 0l.27-.421c-1.812-1.158-3.458-2.667-5.03-4.607l13.204 12.224zm0 0c-.805.87-1.776 1.29-3.017 1.29-.111 0-.219-.004-.344-.01h-.006c-1.96-.128-3.736-.874-5.107-1.527-3.57-1.74-6.697-4.2-9.298-7.326-2.15-2.598-3.585-5.014-4.534-7.607h0C.647 8.334.423 6.99.521 5.746c.08-.948.456-1.76 1.13-2.437l2.074-2.087 19.846 23.964zm.03-.032c.001 0 .002-.001 0 0h0zM.882 5.78h0v.005c-.097 1.22.142 2.531.73 4.11.945 2.567 2.372 4.952 4.474 7.495v.002c2.563 3.083 5.654 5.515 9.176 7.229l.003.001c1.283.615 3.051 1.367 4.975 1.49h.003c.093.006.207.013.318.013 1.116 0 2.013-.378 2.752-1.179l.009-.01.008-.009c.33-.397.694-.753 1.068-1.117l.057-.057c.262-.252.513-.499.756-.76.392-.411.644-.885.648-1.406.004-.527-.245-.997-.641-1.396h0l-3.346-3.36c-.254-.272-.72-.65-1.344-.65-.52 0-.99.26-1.372.645l-2.079 2.09c-.085.087-.247.233-.473.233a.66.66 0 0 1-.31-.084h0l-.003-.002-.008-.004-.028-.016a7.535 7.535 0 0 0-.636-.348l-.13-.066a5.835 5.835 0 0 1-.557-.31h0l-.005-.002c-1.882-1.203-3.598-2.768-5.236-4.8-.902-1.14-1.469-2.081-1.875-3.058l-.01-.028s0 0 0 0a.808.808 0 0 1-.053-.35c.011-.09.052-.216.212-.376 0 0 0 0 0 0l.017-.018c.502-.447.96-.914 1.429-1.39a407.283 407.283 0 0 1 .376-.383h.001c.087-.09.171-.176.256-.26.397-.4.668-.872.668-1.399s-.27-.998-.668-1.398L8.39 3.194a60.2 60.2 0 0 0-.289-.296L8.1 2.896a55.169 55.169 0 0 1-.284-.292h0l-.003-.002-.148-.152c-.319-.326-.631-.646-.96-.952C6.32 1.11 5.857.87 5.353.87c-.507 0-.981.238-1.371.616h0l-.006.006-2.068 2.08A3.46 3.46 0 0 0 .881 5.78z" stroke="#CBCBCB"/></svg>