<svg width="123" height="86" fill="none" xmlns="http://www.w3.org/2000/svg"><path d="M117.327 7.924C112.956 2.78 104.886.681 89.473.681H33.526C17.76.681 9.553 2.915 5.198 8.392.953 13.732.953 21.602.953 32.492v20.757c0 21.098 5.037 31.81 32.573 31.81h55.948c13.365 0 20.772-1.852 25.563-6.392 4.914-4.656 7.01-12.258 7.01-25.418V32.492c0-11.485-.328-19.4-4.72-24.568zM78.696 45.736L53.29 58.882a3.935 3.935 0 0 1-3.833-.12 3.86 3.86 0 0 1-1.883-3.307V29.246a3.86 3.86 0 0 1 1.879-3.305 3.94 3.94 0 0 1 3.828-.127l25.406 13.062a3.863 3.863 0 0 1 2.106 3.427 3.863 3.863 0 0 1-2.097 3.433z" fill="#fff"/></svg>